<mxfile host="app.diagrams.net" modified="2024-05-01T11:19:23.691Z" agent="Mozilla/5.0 (Windows NT 10.0; Win64; x64) AppleWebKit/537.36 (KHTML, like Gecko) Chrome/124.0.0.0 Safari/537.36" etag="s7mMiJzerZyr1gdTz4UN" version="24.3.1" type="device">
  <diagram name="Page-1" id="M-4FkikALWl5fBlhpXIp">
    <mxGraphModel dx="792" dy="1139" grid="1" gridSize="10" guides="1" tooltips="1" connect="1" arrows="1" fold="1" page="1" pageScale="1" pageWidth="850" pageHeight="1100" math="0" shadow="0">
      <root>
        <mxCell id="0" />
        <mxCell id="1" parent="0" />
        <mxCell id="3WxyTb25VewgVucPjmQL-1" value="" style="rounded=0;whiteSpace=wrap;html=1;rotation=90;" vertex="1" parent="1">
          <mxGeometry x="30.25" y="340" width="790" height="360" as="geometry" />
        </mxCell>
        <mxCell id="3WxyTb25VewgVucPjmQL-9" style="edgeStyle=orthogonalEdgeStyle;rounded=0;orthogonalLoop=1;jettySize=auto;html=1;exitX=0.25;exitY=1;exitDx=0;exitDy=0;entryX=0;entryY=0;entryDx=0;entryDy=0;" edge="1" parent="1" source="3WxyTb25VewgVucPjmQL-2" target="3WxyTb25VewgVucPjmQL-5">
          <mxGeometry relative="1" as="geometry" />
        </mxCell>
        <mxCell id="3WxyTb25VewgVucPjmQL-10" value="Ready" style="edgeLabel;html=1;align=center;verticalAlign=middle;resizable=0;points=[];" vertex="1" connectable="0" parent="3WxyTb25VewgVucPjmQL-9">
          <mxGeometry x="-0.2296" y="1" relative="1" as="geometry">
            <mxPoint x="-18" as="offset" />
          </mxGeometry>
        </mxCell>
        <mxCell id="3WxyTb25VewgVucPjmQL-11" style="edgeStyle=orthogonalEdgeStyle;rounded=0;orthogonalLoop=1;jettySize=auto;html=1;exitX=0.5;exitY=1;exitDx=0;exitDy=0;entryX=0.5;entryY=0;entryDx=0;entryDy=0;" edge="1" parent="1" source="3WxyTb25VewgVucPjmQL-2" target="3WxyTb25VewgVucPjmQL-5">
          <mxGeometry relative="1" as="geometry" />
        </mxCell>
        <mxCell id="3WxyTb25VewgVucPjmQL-12" value="Data_out" style="edgeLabel;html=1;align=center;verticalAlign=middle;resizable=0;points=[];" vertex="1" connectable="0" parent="3WxyTb25VewgVucPjmQL-11">
          <mxGeometry x="-0.0476" y="-2" relative="1" as="geometry">
            <mxPoint x="2" y="17" as="offset" />
          </mxGeometry>
        </mxCell>
        <mxCell id="3WxyTb25VewgVucPjmQL-16" style="edgeStyle=orthogonalEdgeStyle;rounded=0;orthogonalLoop=1;jettySize=auto;html=1;exitX=0.5;exitY=0;exitDx=0;exitDy=0;entryX=0.75;entryY=1;entryDx=0;entryDy=0;" edge="1" parent="1" source="3WxyTb25VewgVucPjmQL-2" target="3WxyTb25VewgVucPjmQL-3">
          <mxGeometry relative="1" as="geometry" />
        </mxCell>
        <mxCell id="3WxyTb25VewgVucPjmQL-17" style="edgeStyle=orthogonalEdgeStyle;rounded=0;orthogonalLoop=1;jettySize=auto;html=1;exitX=0.5;exitY=0;exitDx=0;exitDy=0;entryX=0.25;entryY=1;entryDx=0;entryDy=0;" edge="1" parent="1" source="3WxyTb25VewgVucPjmQL-2" target="3WxyTb25VewgVucPjmQL-4">
          <mxGeometry relative="1" as="geometry" />
        </mxCell>
        <mxCell id="3WxyTb25VewgVucPjmQL-18" value="Ready for Input" style="edgeLabel;html=1;align=center;verticalAlign=middle;resizable=0;points=[];" vertex="1" connectable="0" parent="3WxyTb25VewgVucPjmQL-17">
          <mxGeometry x="-0.52" y="1" relative="1" as="geometry">
            <mxPoint as="offset" />
          </mxGeometry>
        </mxCell>
        <mxCell id="3WxyTb25VewgVucPjmQL-2" value="Calc" style="rounded=0;whiteSpace=wrap;html=1;fillColor=#f8cecc;strokeColor=#b85450;" vertex="1" parent="1">
          <mxGeometry x="380" y="450" width="90" height="150" as="geometry" />
        </mxCell>
        <mxCell id="3WxyTb25VewgVucPjmQL-67" value="REAL" style="rounded=0;whiteSpace=wrap;html=1;fillColor=#dae8fc;strokeColor=#6c8ebf;" vertex="1" parent="1">
          <mxGeometry x="280" y="10" width="120" height="60" as="geometry" />
        </mxCell>
        <mxCell id="3WxyTb25VewgVucPjmQL-22" style="edgeStyle=orthogonalEdgeStyle;rounded=0;orthogonalLoop=1;jettySize=auto;html=1;exitX=0.5;exitY=1;exitDx=0;exitDy=0;entryX=0;entryY=0.25;entryDx=0;entryDy=0;" edge="1" parent="1" source="3WxyTb25VewgVucPjmQL-3" target="3WxyTb25VewgVucPjmQL-2">
          <mxGeometry relative="1" as="geometry" />
        </mxCell>
        <mxCell id="3WxyTb25VewgVucPjmQL-27" value="Data_out" style="edgeLabel;html=1;align=center;verticalAlign=middle;resizable=0;points=[];" vertex="1" connectable="0" parent="3WxyTb25VewgVucPjmQL-22">
          <mxGeometry x="-0.1273" y="-3" relative="1" as="geometry">
            <mxPoint x="13" as="offset" />
          </mxGeometry>
        </mxCell>
        <mxCell id="3WxyTb25VewgVucPjmQL-23" style="edgeStyle=orthogonalEdgeStyle;rounded=0;orthogonalLoop=1;jettySize=auto;html=1;exitX=0.25;exitY=1;exitDx=0;exitDy=0;entryX=0;entryY=0.5;entryDx=0;entryDy=0;" edge="1" parent="1" source="3WxyTb25VewgVucPjmQL-3" target="3WxyTb25VewgVucPjmQL-2">
          <mxGeometry relative="1" as="geometry" />
        </mxCell>
        <mxCell id="3WxyTb25VewgVucPjmQL-28" value="!Empty" style="edgeLabel;html=1;align=center;verticalAlign=middle;resizable=0;points=[];" vertex="1" connectable="0" parent="3WxyTb25VewgVucPjmQL-23">
          <mxGeometry x="0.4359" y="-2" relative="1" as="geometry">
            <mxPoint x="15" y="-2" as="offset" />
          </mxGeometry>
        </mxCell>
        <mxCell id="3WxyTb25VewgVucPjmQL-33" style="edgeStyle=orthogonalEdgeStyle;rounded=0;orthogonalLoop=1;jettySize=auto;html=1;exitX=0.25;exitY=0;exitDx=0;exitDy=0;" edge="1" parent="1">
          <mxGeometry relative="1" as="geometry">
            <mxPoint x="310" y="60" as="targetPoint" />
            <mxPoint x="310" y="190" as="sourcePoint" />
            <Array as="points">
              <mxPoint x="310" y="125" />
              <mxPoint x="311" y="125" />
            </Array>
          </mxGeometry>
        </mxCell>
        <mxCell id="3WxyTb25VewgVucPjmQL-34" value="!Full" style="edgeLabel;html=1;align=center;verticalAlign=middle;resizable=0;points=[];" vertex="1" connectable="0" parent="3WxyTb25VewgVucPjmQL-33">
          <mxGeometry x="0.1956" y="1" relative="1" as="geometry">
            <mxPoint as="offset" />
          </mxGeometry>
        </mxCell>
        <mxCell id="3WxyTb25VewgVucPjmQL-39" style="edgeStyle=orthogonalEdgeStyle;rounded=0;orthogonalLoop=1;jettySize=auto;html=1;exitX=0.75;exitY=0;exitDx=0;exitDy=0;startArrow=classic;startFill=1;endArrow=none;endFill=0;" edge="1" parent="1" source="3WxyTb25VewgVucPjmQL-3">
          <mxGeometry relative="1" as="geometry">
            <mxPoint x="360" y="60" as="targetPoint" />
          </mxGeometry>
        </mxCell>
        <mxCell id="3WxyTb25VewgVucPjmQL-40" value="Data_in" style="edgeLabel;html=1;align=center;verticalAlign=middle;resizable=0;points=[];" vertex="1" connectable="0" parent="3WxyTb25VewgVucPjmQL-39">
          <mxGeometry x="0.6703" y="-2" relative="1" as="geometry">
            <mxPoint x="2" as="offset" />
          </mxGeometry>
        </mxCell>
        <mxCell id="3WxyTb25VewgVucPjmQL-3" value="FiFo_real" style="rounded=0;whiteSpace=wrap;html=1;fillColor=#dae8fc;strokeColor=#6c8ebf;" vertex="1" parent="1">
          <mxGeometry x="300" y="190" width="80" height="200" as="geometry" />
        </mxCell>
        <mxCell id="3WxyTb25VewgVucPjmQL-70" value="IMAGINARY" style="rounded=0;whiteSpace=wrap;html=1;fillColor=#d5e8d4;strokeColor=#82b366;" vertex="1" parent="1">
          <mxGeometry x="460" y="10" width="120" height="60" as="geometry" />
        </mxCell>
        <mxCell id="3WxyTb25VewgVucPjmQL-24" style="edgeStyle=orthogonalEdgeStyle;rounded=0;orthogonalLoop=1;jettySize=auto;html=1;exitX=0.5;exitY=1;exitDx=0;exitDy=0;entryX=1;entryY=0.25;entryDx=0;entryDy=0;" edge="1" parent="1" source="3WxyTb25VewgVucPjmQL-4" target="3WxyTb25VewgVucPjmQL-2">
          <mxGeometry relative="1" as="geometry" />
        </mxCell>
        <mxCell id="3WxyTb25VewgVucPjmQL-26" value="Data_out" style="edgeLabel;html=1;align=center;verticalAlign=middle;resizable=0;points=[];" vertex="1" connectable="0" parent="3WxyTb25VewgVucPjmQL-24">
          <mxGeometry x="-0.3745" y="-2" relative="1" as="geometry">
            <mxPoint x="-8" y="17" as="offset" />
          </mxGeometry>
        </mxCell>
        <mxCell id="3WxyTb25VewgVucPjmQL-25" style="edgeStyle=orthogonalEdgeStyle;rounded=0;orthogonalLoop=1;jettySize=auto;html=1;exitX=0.75;exitY=1;exitDx=0;exitDy=0;entryX=1;entryY=0.5;entryDx=0;entryDy=0;" edge="1" parent="1" source="3WxyTb25VewgVucPjmQL-4" target="3WxyTb25VewgVucPjmQL-2">
          <mxGeometry relative="1" as="geometry" />
        </mxCell>
        <mxCell id="3WxyTb25VewgVucPjmQL-29" value="!Empty" style="edgeLabel;html=1;align=center;verticalAlign=middle;resizable=0;points=[];" vertex="1" connectable="0" parent="3WxyTb25VewgVucPjmQL-25">
          <mxGeometry x="0.5795" y="2" relative="1" as="geometry">
            <mxPoint x="-11" y="-2" as="offset" />
          </mxGeometry>
        </mxCell>
        <mxCell id="3WxyTb25VewgVucPjmQL-35" style="edgeStyle=orthogonalEdgeStyle;rounded=0;orthogonalLoop=1;jettySize=auto;html=1;exitX=0.75;exitY=0;exitDx=0;exitDy=0;" edge="1" parent="1">
          <mxGeometry relative="1" as="geometry">
            <mxPoint x="540" y="60" as="targetPoint" />
            <mxPoint x="540" y="190" as="sourcePoint" />
          </mxGeometry>
        </mxCell>
        <mxCell id="3WxyTb25VewgVucPjmQL-38" value="!Full" style="edgeLabel;html=1;align=center;verticalAlign=middle;resizable=0;points=[];" vertex="1" connectable="0" parent="3WxyTb25VewgVucPjmQL-35">
          <mxGeometry x="0.1799" y="-2" relative="1" as="geometry">
            <mxPoint as="offset" />
          </mxGeometry>
        </mxCell>
        <mxCell id="3WxyTb25VewgVucPjmQL-4" value="FiFo_imag" style="rounded=0;whiteSpace=wrap;html=1;fillColor=#d5e8d4;strokeColor=#82b366;" vertex="1" parent="1">
          <mxGeometry x="470" y="190" width="80" height="200" as="geometry" />
        </mxCell>
        <mxCell id="3WxyTb25VewgVucPjmQL-14" style="edgeStyle=orthogonalEdgeStyle;rounded=0;orthogonalLoop=1;jettySize=auto;html=1;exitX=1;exitY=0;exitDx=0;exitDy=0;entryX=0.75;entryY=1;entryDx=0;entryDy=0;" edge="1" parent="1" source="3WxyTb25VewgVucPjmQL-5" target="3WxyTb25VewgVucPjmQL-2">
          <mxGeometry relative="1" as="geometry" />
        </mxCell>
        <mxCell id="3WxyTb25VewgVucPjmQL-15" value="Not Full" style="edgeLabel;html=1;align=center;verticalAlign=middle;resizable=0;points=[];" vertex="1" connectable="0" parent="3WxyTb25VewgVucPjmQL-14">
          <mxGeometry x="-0.1085" y="-2" relative="1" as="geometry">
            <mxPoint x="13" y="27" as="offset" />
          </mxGeometry>
        </mxCell>
        <mxCell id="3WxyTb25VewgVucPjmQL-5" value="FiFo_results" style="rounded=0;whiteSpace=wrap;html=1;rotation=0;fillColor=#fad7ac;strokeColor=#b46504;" vertex="1" parent="1">
          <mxGeometry x="364" y="690" width="122.5" height="200" as="geometry" />
        </mxCell>
        <mxCell id="3WxyTb25VewgVucPjmQL-41" style="edgeStyle=orthogonalEdgeStyle;rounded=0;orthogonalLoop=1;jettySize=auto;html=1;exitX=0.75;exitY=0;exitDx=0;exitDy=0;startArrow=classic;startFill=1;endArrow=none;endFill=0;" edge="1" parent="1">
          <mxGeometry relative="1" as="geometry">
            <mxPoint x="486.5" y="60" as="targetPoint" />
            <mxPoint x="486.5" y="190" as="sourcePoint" />
          </mxGeometry>
        </mxCell>
        <mxCell id="3WxyTb25VewgVucPjmQL-42" value="Data_in" style="edgeLabel;html=1;align=center;verticalAlign=middle;resizable=0;points=[];" vertex="1" connectable="0" parent="3WxyTb25VewgVucPjmQL-41">
          <mxGeometry x="0.6703" y="-2" relative="1" as="geometry">
            <mxPoint x="-8" as="offset" />
          </mxGeometry>
        </mxCell>
        <mxCell id="3WxyTb25VewgVucPjmQL-45" style="edgeStyle=orthogonalEdgeStyle;rounded=0;orthogonalLoop=1;jettySize=auto;html=1;exitX=0.75;exitY=0;exitDx=0;exitDy=0;startArrow=classic;startFill=1;endArrow=none;endFill=0;" edge="1" parent="1">
          <mxGeometry relative="1" as="geometry">
            <mxPoint x="330" y="60" as="targetPoint" />
            <mxPoint x="330" y="190" as="sourcePoint" />
          </mxGeometry>
        </mxCell>
        <mxCell id="3WxyTb25VewgVucPjmQL-46" value="w_cntrl" style="edgeLabel;html=1;align=center;verticalAlign=middle;resizable=0;points=[];" vertex="1" connectable="0" parent="3WxyTb25VewgVucPjmQL-45">
          <mxGeometry x="0.6703" y="-2" relative="1" as="geometry">
            <mxPoint y="19" as="offset" />
          </mxGeometry>
        </mxCell>
        <mxCell id="3WxyTb25VewgVucPjmQL-47" style="edgeStyle=orthogonalEdgeStyle;rounded=0;orthogonalLoop=1;jettySize=auto;html=1;exitX=0.75;exitY=0;exitDx=0;exitDy=0;startArrow=classic;startFill=1;endArrow=none;endFill=0;" edge="1" parent="1">
          <mxGeometry relative="1" as="geometry">
            <mxPoint x="509.5" y="60" as="targetPoint" />
            <mxPoint x="509.5" y="190" as="sourcePoint" />
          </mxGeometry>
        </mxCell>
        <mxCell id="3WxyTb25VewgVucPjmQL-48" value="w_cntrl" style="edgeLabel;html=1;align=center;verticalAlign=middle;resizable=0;points=[];" vertex="1" connectable="0" parent="3WxyTb25VewgVucPjmQL-47">
          <mxGeometry x="0.6703" y="-2" relative="1" as="geometry">
            <mxPoint y="19" as="offset" />
          </mxGeometry>
        </mxCell>
        <mxCell id="3WxyTb25VewgVucPjmQL-49" value="r_cntrl" style="text;html=1;align=center;verticalAlign=middle;whiteSpace=wrap;rounded=0;" vertex="1" parent="1">
          <mxGeometry x="330" y="370" width="60" height="30" as="geometry" />
        </mxCell>
        <mxCell id="3WxyTb25VewgVucPjmQL-50" value="r_cntrl" style="text;html=1;align=center;verticalAlign=middle;whiteSpace=wrap;rounded=0;" vertex="1" parent="1">
          <mxGeometry x="460" y="370" width="60" height="30" as="geometry" />
        </mxCell>
        <mxCell id="3WxyTb25VewgVucPjmQL-54" style="edgeStyle=orthogonalEdgeStyle;rounded=0;orthogonalLoop=1;jettySize=auto;html=1;exitX=0.25;exitY=0;exitDx=0;exitDy=0;startArrow=classic;startFill=1;endArrow=none;endFill=0;" edge="1" parent="1">
          <mxGeometry relative="1" as="geometry">
            <mxPoint x="380" y="890" as="targetPoint" />
            <mxPoint x="380" y="1020" as="sourcePoint" />
            <Array as="points">
              <mxPoint x="380" y="955" />
              <mxPoint x="381" y="955" />
            </Array>
          </mxGeometry>
        </mxCell>
        <mxCell id="3WxyTb25VewgVucPjmQL-61" value="!Empty" style="edgeLabel;html=1;align=center;verticalAlign=middle;resizable=0;points=[];" vertex="1" connectable="0" parent="3WxyTb25VewgVucPjmQL-54">
          <mxGeometry x="0.1295" y="-1" relative="1" as="geometry">
            <mxPoint as="offset" />
          </mxGeometry>
        </mxCell>
        <mxCell id="3WxyTb25VewgVucPjmQL-56" style="edgeStyle=orthogonalEdgeStyle;rounded=0;orthogonalLoop=1;jettySize=auto;html=1;exitX=0.75;exitY=0;exitDx=0;exitDy=0;startArrow=classic;startFill=1;endArrow=none;endFill=0;" edge="1" parent="1">
          <mxGeometry relative="1" as="geometry">
            <mxPoint x="469" y="890" as="targetPoint" />
            <mxPoint x="469" y="1020" as="sourcePoint" />
          </mxGeometry>
        </mxCell>
        <mxCell id="3WxyTb25VewgVucPjmQL-62" value="Data_out" style="edgeLabel;html=1;align=center;verticalAlign=middle;resizable=0;points=[];" vertex="1" connectable="0" parent="3WxyTb25VewgVucPjmQL-56">
          <mxGeometry x="-0.0615" y="1" relative="1" as="geometry">
            <mxPoint as="offset" />
          </mxGeometry>
        </mxCell>
        <mxCell id="3WxyTb25VewgVucPjmQL-58" style="edgeStyle=orthogonalEdgeStyle;rounded=0;orthogonalLoop=1;jettySize=auto;html=1;exitX=0.75;exitY=0;exitDx=0;exitDy=0;startArrow=none;startFill=0;endArrow=classic;endFill=1;" edge="1" parent="1">
          <mxGeometry relative="1" as="geometry">
            <mxPoint x="429" y="890" as="targetPoint" />
            <mxPoint x="429" y="1020" as="sourcePoint" />
          </mxGeometry>
        </mxCell>
        <mxCell id="3WxyTb25VewgVucPjmQL-59" value="r_cntrl" style="edgeLabel;html=1;align=center;verticalAlign=middle;resizable=0;points=[];" vertex="1" connectable="0" parent="3WxyTb25VewgVucPjmQL-58">
          <mxGeometry x="0.6703" y="-2" relative="1" as="geometry">
            <mxPoint y="19" as="offset" />
          </mxGeometry>
        </mxCell>
        <mxCell id="3WxyTb25VewgVucPjmQL-63" value="" style="shape=flexArrow;endArrow=classic;html=1;rounded=0;entryX=0.5;entryY=1;entryDx=0;entryDy=0;" edge="1" parent="1" target="3WxyTb25VewgVucPjmQL-1">
          <mxGeometry width="50" height="50" relative="1" as="geometry">
            <mxPoint x="90" y="520" as="sourcePoint" />
            <mxPoint x="430" y="560" as="targetPoint" />
          </mxGeometry>
        </mxCell>
        <mxCell id="3WxyTb25VewgVucPjmQL-64" value="CLK" style="edgeLabel;html=1;align=center;verticalAlign=middle;resizable=0;points=[];" vertex="1" connectable="0" parent="3WxyTb25VewgVucPjmQL-63">
          <mxGeometry x="-0.5491" y="1" relative="1" as="geometry">
            <mxPoint x="35" y="-19" as="offset" />
          </mxGeometry>
        </mxCell>
        <mxCell id="3WxyTb25VewgVucPjmQL-65" value="" style="shape=flexArrow;endArrow=classic;html=1;rounded=0;entryX=0.5;entryY=0;entryDx=0;entryDy=0;" edge="1" parent="1" target="3WxyTb25VewgVucPjmQL-1">
          <mxGeometry width="50" height="50" relative="1" as="geometry">
            <mxPoint x="740" y="520" as="sourcePoint" />
            <mxPoint x="430" y="560" as="targetPoint" />
          </mxGeometry>
        </mxCell>
        <mxCell id="3WxyTb25VewgVucPjmQL-66" value="RESET" style="edgeLabel;html=1;align=center;verticalAlign=middle;resizable=0;points=[];" vertex="1" connectable="0" parent="3WxyTb25VewgVucPjmQL-65">
          <mxGeometry x="-0.4063" y="5" relative="1" as="geometry">
            <mxPoint x="-20" y="-25" as="offset" />
          </mxGeometry>
        </mxCell>
      </root>
    </mxGraphModel>
  </diagram>
</mxfile>
